<svg width="876.755029296875px" height="294.5599670410156px" xmlns="http://www.w3.org/2000/svg" viewBox="-188.3775146484375 -72.27998352050781 876.755029296875 294.5599670410156" style="background: rgba(255, 255, 255, 0);" preserveAspectRatio="xMidYMid"><defs><filter id="editing-vintage" x="-100%" y="-100%" width="300%" height="300%"><feConvolveMatrix in="SourceGraphic" result="extrude" order="4,4" divisor="1" kernelMatrix="1,0,0,0,0,1,0,0,0,0,1,0,0,0,0,1"> </feConvolveMatrix><feFlood flood-color="#900" result="flood-extrude"></feFlood><feComposite operator="in" in="flood-extrude" in2="extrude" result="extrude-color"></feComposite><feOffset dx="2" dy="2" in="extrude-color" result="extrude-offset"></feOffset><feColorMatrix in="SourceGraphic" result="stroke" type="matrix" values="0 0 0 0 0 0 0 0 0 0 0 0 0 0 0 0 1 0 0 0 "></feColorMatrix><feColorMatrix in="SourceGraphic" result="fill" type="matrix" values="0 0 0 0 0 0 0 0 0 0 0 0 0 0 0 1 0 0 1 0 "></feColorMatrix><feConvolveMatrix in="stroke" result="inner-shadow" order="5,5" divisor="1" kernelMatrix="1 0 0 0 0 0 1 0 0 0 0 0 1 0 0 0 0 0 1 0 0 0 0 0 1 "></feConvolveMatrix><feOffset dx="1" dy="1" in="inner-shadow" result="offset"></feOffset><feComposite operator="in" in="offset" in2="SourceAlpha" result="comp"></feComposite><feFlood flood-color="#000" result="flood3"></feFlood><feComposite operator="in" in="flood3" in2="comp" result="comp2"></feComposite><feColorMatrix in="comp2" result="comp3" type="matrix" values="1 0 0 0 0 0 1 0 0 0 0 0 1 0 0 0 0 0 0.5 0 "></feColorMatrix><feFlood flood-color="#ff0202" result="flood1"></feFlood><feComposite operator="in" in="flood1" in2="fill" result="fill2"></feComposite><feFlood flood-color="#fff" result="flood2"></feFlood><feComposite operator="in" in="flood2" in2="stroke" result="stroke2"></feComposite><feMerge result="obj"><feMergeNode in="extrude-offset"></feMergeNode><feMergeNode in="fill2"></feMergeNode><feMergeNode in="comp3"></feMergeNode></feMerge><feConvolveMatrix in="SourceAlpha" result="shadow" order="4,4" divisor="1" kernelMatrix="1,0,0,0,0,1,0,0,0,0,1,0,0,0,0,1"></feConvolveMatrix><feOffset dx="6" dy="6" in="shadow" result="shadow-offset"></feOffset><feFlood flood-color="#444444" result="flood-shadow"></feFlood><feComposite operator="in" in="flood-shadow" in2="shadow-offset" result="shadow-color"></feComposite><feMerge><feMergeNode in="shadow-color"></feMergeNode><feMergeNode in="obj"></feMergeNode></feMerge></filter></defs><g transform="translate(-4,-4)"><g filter="url(#editing-vintage)"><g transform="translate(-64.06997013092041, 125.34000396728516)"><path d="M17.42-23.65L17.42-23.65L17.98-13.31L17.98-13.31Q17.98-12.46 17.91-10.20L17.91-10.20L17.91-10.20Q17.84-7.93 16.21-6.16L16.21-6.16L16.21-6.16Q14.58-4.39 12.25-4.39L12.25-4.39L12.25-4.39Q9.91-4.39 8.64-4.53L8.64-4.53L8.64-4.53Q3.96-4.53 3.96-8.64L3.96-8.64L3.96-8.64Q3.96-12.04 7.08-36.04L7.08-36.04L7.08-36.04Q10.20-60.04 11.04-66.98L11.04-66.98L11.04-66.98Q11.89-73.92 12.53-78.66L12.53-78.66L12.53-78.66Q13.17-83.40 13.45-85.67L13.45-85.67L13.45-85.67Q13.74-87.93 14.30-90.20L14.30-90.20L14.30-90.20Q14.87-92.47 16.00-93.88L16.00-93.88L16.00-93.88Q18.13-96.57 24.21-96.57L24.21-96.57L24.21-96.57Q34.41-91.47 45.17-67.69L45.17-67.69L45.17-67.69Q52.82-50.69 55.37-46.16L55.37-46.16L55.37-46.16Q57.92-41.63 60.32-39.93L60.32-39.93L88.64-89.21L88.64-89.21Q91.62-91.33 93.17-91.33L93.17-91.33L93.17-91.33Q97.71-91.33 100.11-87.23L100.11-87.23L100.11-87.23Q102.52-83.12 104.15-77.24L104.15-77.24L104.15-77.24Q105.78-71.37 106.98-64.29L106.98-64.29L106.98-64.29Q108.18-57.21 109.10-49.49L109.10-49.49L109.10-49.49Q110.02-41.77 110.87-34.41L110.87-34.41L110.87-34.41Q112.86-16.71 113.92-12.18L113.92-12.18L113.92-12.18Q114.98-7.65 114.98-5.73L114.98-5.73L114.98-5.73Q114.98-3.82 113.71-2.05L113.71-2.05L113.71-2.05Q112.43-0.28 110.17-0.28L110.17-0.28L110.17-0.28Q107.90-0.28 105.63-2.05L105.63-2.05L105.63-2.05Q103.37-3.82 102.87-6.44L102.87-6.44L102.87-6.44Q102.38-9.06 101.88-13.31L101.88-13.31L101.88-13.31Q101.39-17.56 100.68-22.87L100.68-22.87L100.68-22.87Q99.97-28.18 99.26-34.06L99.26-34.06L99.26-34.06Q98.55-39.93 97.85-45.31L97.85-45.31L97.85-45.31Q97.14-50.69 96.57-54.87L96.57-54.87L96.57-54.87Q96.01-59.05 95.72-61.17L95.72-61.17L95.72-61.17Q95.72-64.00 95.58-66.41L95.58-66.41L95.58-66.41Q95.44-68.82 94.45-69.38L94.45-69.38L94.45-69.38Q93.46-69.95 91.40-68.04L91.40-68.04L91.40-68.04Q89.35-66.13 85.67-60.32L85.67-60.32L85.67-60.32Q77.74-48.00 62.73-18.83L62.73-18.83L62.73-18.83Q60.75-15.29 57.49-17.28L57.49-17.28L57.49-17.28Q53.67-19.40 50.98-28.18L50.98-28.18L24.92-83.54L24.92-83.54Q21.52-76.75 18.69-38.52L18.69-38.52L18.69-38.52Q18.27-33.84 18.13-30.59L18.13-30.59L18.13-30.59Q17.42-27.05 17.42-23.65ZM127.30-26.90L127.30-26.90L127.30-26.90Q127.30-43.61 141.74-53.81L141.74-53.81L141.74-53.81Q153.21-61.88 169.36-63.58L169.36-63.58L169.36-63.58Q170.21-63.58 173.32-63.58L173.32-63.58L173.32-63.58Q176.44-63.58 181.67-61.74L181.67-61.74L181.67-61.74Q193.29-57.77 197.53-47.72L197.53-47.72L197.53-47.72Q199.23-43.75 199.23-40.99L199.23-40.99L199.23-40.99Q199.23-38.23 199.09-37.10L199.09-37.10L199.09-37.10Q199.09-19.40 185.64-9.20L185.64-9.20L185.64-9.20Q173.18 0.14 154.49 0.14L154.49 0.14L154.49 0.14Q141.04 0.14 134.17-6.09L134.17-6.09L134.17-6.09Q127.30-12.32 127.30-26.90ZM137.07-23.51L137.07-23.51L137.07-23.51Q137.07-14.73 141.74-11.61L141.74-11.61L141.74-11.61Q145.28-9.35 153.64-9.35L153.64-9.35L153.64-9.35Q161.99-9.35 168.36-10.62L168.36-10.62L168.36-10.62Q174.74-11.89 179.69-15.01L179.69-15.01L179.69-15.01Q190.31-21.81 190.31-36.11L190.31-36.11L190.31-36.11Q190.31-44.60 185.78-49.99L185.78-49.99L185.78-49.99Q180.83-55.79 172.75-55.79L172.75-55.79L172.75-55.79Q167.23-54.80 161.64-53.67L161.64-53.67L161.64-53.67Q156.04-52.53 151.09-49.28L151.09-49.28L151.09-49.28Q140.33-42.34 137.07-23.51ZM206.60-54.80L206.60-54.80L206.60-54.80Q206.31-55.51 206.31-56.43L206.31-56.43L206.31-56.43Q206.31-57.35 207.02-58.91L207.02-58.91L207.02-58.91Q207.73-60.46 209.07-61.60L209.07-61.60L209.07-61.60Q210.42-62.73 212.05-62.66L212.05-62.66L212.05-62.66Q213.68-62.59 214.67-60.61L214.67-60.61L238.46-16.43L238.46-16.43Q239.59-18.13 242.07-22.73L242.07-22.73L242.07-22.73Q244.55-27.33 247.73-33.13L247.73-33.13L247.73-33.13Q250.92-38.94 254.39-45.24L254.39-45.24L254.39-45.24Q257.86-51.54 260.83-56.78L260.83-56.78L260.83-56.78Q267.63-68.82 268.90-68.82L268.90-68.82L268.90-68.82Q271.88-68.82 273.22-66.62L273.22-66.62L273.22-66.62Q274.57-64.43 274.57-63.30L274.57-63.30L274.57-63.30Q274.57-62.16 274.57-61.74L274.57-61.74L274.57-61.74Q266.64-44.46 259.91-29.88L259.91-29.88L259.91-29.88Q253.18-15.29 250.99-10.97L250.99-10.97L250.99-10.97Q248.79-6.66 247.09-4.11L247.09-4.11L247.09-4.11Q244.12 0.28 241.29 0.28L241.29 0.28L241.29 0.28Q238.46 0.28 234.78-4.18L234.78-4.18L234.78-4.18Q231.09-8.64 226.42-16.14L226.42-16.14L226.42-16.14Q218.21-29.74 206.60-54.80ZM284.34-66.55L293.26-66.55L293.26-66.55Q295.10-40.07 296.37-5.24L296.37-5.24L296.37-5.24Q295.52-0.85 289.58-0.85L289.58-0.85L289.58-0.85Q288.02-0.85 286.39-1.49L286.39-1.49L286.39-1.49Q284.76-2.12 284.34-3.26L284.34-3.26L284.34-66.55ZM280.09-85.81L280.09-85.81L280.09-85.81Q280.09-90.77 285.89-90.77L285.89-90.77L285.89-90.77Q289.72-90.77 292.12-89.07L292.12-89.07L292.12-89.07Q292.55-87.51 292.55-86.02L292.55-86.02L292.55-86.02Q292.55-84.54 291.42-83.12L291.42-83.12L291.42-83.12Q290.28-81.70 288.02-81.70L288.02-81.70L288.02-81.70Q285.75-81.70 283.49-82.77L283.49-82.77L283.49-82.77Q281.22-83.83 280.09-85.81ZM331.35-9.91L331.35-9.91L331.35-9.91Q343.81-9.91 368.87-21.24L368.87-21.24L368.87-21.24Q370.43-21.24 371.42-20.18L371.42-20.18L371.42-20.18Q372.41-19.12 372.41-17.70L372.41-17.70L372.41-17.70Q366.75-8.07 350.75-2.69L350.75-2.69L350.75-2.69Q334.75 2.69 320.87-0.85L320.87-0.85L320.87-0.85Q305.15-4.96 301.75-18.55L301.75-18.55L301.75-18.55Q301.47-21.24 301.47-25.77L301.47-25.77L301.47-25.77Q301.47-30.30 303.81-37.74L303.81-37.74L303.81-37.74Q306.14-45.17 311.81-51.83L311.81-51.83L311.81-51.83Q317.47-58.48 325.12-62.30L325.12-62.30L325.12-62.30Q332.76-66.13 341.40-66.13L341.40-66.13L341.40-66.13Q349.61-66.13 359.81-60.46L359.81-60.46L359.81-60.46Q364.62-57.77 367.46-54.38L367.46-54.38L367.46-54.38Q370.29-50.98 370.29-47.44L370.29-47.44L370.29-47.44Q370.29-46.45 370.15-45.45L370.15-45.45L370.15-45.45Q369.86-36.82 361.79-34.55L361.79-34.55L361.79-34.55Q358.25-33.56 353.58-33.56L353.58-33.56L333.19-34.41L333.19-34.41Q322.99-34.41 317.61-30.02L317.61-30.02L317.61-30.02Q314.50-27.61 313.22-22.80L313.22-22.80L313.22-22.80Q316.76-9.91 331.35-9.91ZM356.62-53.67L356.62-53.67L356.62-53.67Q353.44-55.93 350.04-56.92L350.04-56.92L350.04-56.92Q346.64-57.92 344.38-57.92L344.38-57.92L344.38-57.92Q342.11-57.92 337.01-56.43L337.01-56.43L337.01-56.43Q331.91-54.94 327.95-53.10L327.95-53.10L327.95-53.10Q318.18-48.57 318.18-43.61L318.18-43.61L318.18-43.61Q329.51-42.62 335.17-42.62L335.17-42.62L335.17-42.62Q350.89-42.62 356.41-45.31L356.41-45.31L356.41-45.31Q359.81-46.73 359.81-48.85L359.81-48.85L359.81-48.85Q359.81-51.40 356.62-53.67ZM429.34-36.53L429.34-36.53L429.34-36.53Q444.91-36.53 444.91-28.60L444.91-28.60L444.91-28.60Q444.91-22.66 436.27-14.73L436.27-14.73L436.27-14.73Q423.39-2.97 401.58 4.11L401.58 4.11L401.58 4.11Q400.59 4.11 399.39 2.12L399.39 2.12L399.39 2.12Q398.18 0.14 397.55-0.92L397.55-0.92L397.55-0.92Q396.91-1.98 396.63-2.27L396.63-2.27L396.63-2.27Q412.91-7.65 423.39-15.29L423.39-15.29L423.39-15.29Q430.47-20.39 430.47-23.65L430.47-23.65L430.47-23.65Q430.47-26.90 422.11-26.90L422.11-26.90L422.11-26.90Q413.76-26.90 397.62-22.94L397.62-22.94L397.62-22.94Q390.25-23.22 384.87-28.18L384.87-28.18L384.87-28.18Q380.20-32.57 380.20-37.03L380.20-37.03L380.20-37.03Q380.20-41.49 382.75-45.24L382.75-45.24L382.75-45.24Q385.30-48.99 389.55-52.25L389.55-52.25L389.55-52.25Q393.79-55.51 399.46-58.20L399.46-58.20L399.46-58.20Q413.33-64.85 428.20-64.85L428.20-64.85L428.20-64.85Q432.59-64.85 436.70-64.00L436.70-64.00L436.70-64.00Q440.10-64.00 440.66-61.03L440.66-61.03L440.66-61.03Q441.23-58.06 441.23-51.26L441.23-51.26L441.23-51.26Q432.88-55.08 422.40-55.08L422.40-55.08L422.40-55.08Q409.37-55.08 400.87-49.84L400.87-49.84L400.87-49.84Q392.09-44.75 391.81-36.53L391.81-36.53L391.81-36.53Q391.81-32.57 397.62-32.57L397.62-32.57L407.95-33.70L407.95-33.70Q421.26-36.53 429.34-36.53ZM514.30 0.85L506.08 2.12L506.08 2.12Q503.11 2.12 502.69 0.42L502.69 0.42L503.25-27.61L492.92-27.61L475.92-27.75L465.73-27.75L465.73-27.75Q463.89-27.75 462.05-28.32L462.05-28.32L462.05-28.32Q460.21-28.89 460.21-31.29L460.21-31.29L460.21-31.29Q467.71-40.92 474.79-50.69L474.79-50.69L474.79-50.69Q497.30-81.42 505.66-81.42L505.66-81.42L505.66-81.42Q515.00-81.42 515.00-48.57L515.00-48.57L515.00-48.57Q515.00-44.32 514.86-39.51L514.86-39.51L546.16-39.93L546.16-39.93Q546.16-36.25 545.24-34.55L545.24-34.55L545.24-34.55Q544.32-32.85 543.61-32.71L543.61-32.71L517.41-30.59L517.41-30.59Q515.43-25.06 515.00-18.13L515.00-18.13L515.00-18.13Q514.30-6.80 514.30 0.85L514.30 0.85ZM503.25-37.67L503.25-68.25L503.25-68.25Q500.14-64.00 495.68-59.97L495.68-59.97L495.68-59.97Q491.22-55.93 486.97-51.90L486.97-51.90L486.97-51.90Q482.72-47.86 479.32-43.75L479.32-43.75L479.32-43.75Q475.92-39.65 475.07-35.26L475.07-35.26L475.07-35.26Q476.06-35.26 479.46-35.26L479.46-35.26L479.46-35.26Q482.86-35.26 489.23-36.04L489.23-36.04L489.23-36.04Q495.61-36.82 503.25-37.67L503.25-37.67ZM623.05-2.27L623.05-2.27L623.05-2.27Q623.05 0.28 618.66 0.28L618.66 0.28L618.66 0.28Q616.53 0.28 614.76-0.35L614.76-0.35L614.76-0.35Q612.99-0.99 612.57-1.42L612.57-1.42L613.98-19.54L613.98-19.54Q600.96-8.35 595.01-5.52L595.01-5.52L595.01-5.52Q585.66-0.85 575.89-0.85L575.89-0.85L575.89-0.85Q574.05-0.85 572.07-0.99L572.07-0.99L572.07-0.99Q551.40-3.26 551.40-27.47L551.40-27.47L551.40-27.47Q551.40-38.52 557.06-65.00L557.06-65.00L557.06-65.00Q558.90-73.21 559.47-80.00L559.47-80.00L559.47-80.00Q559.89-80.15 561.31-80.15L561.31-80.15L561.31-80.15Q561.31-80.15 563.01-80.15L563.01-80.15L563.01-80.15Q563.72-80.29 564.28-80.29L564.28-80.29L564.28-80.29Q568.81-80.29 568.81-73.49L568.81-73.49L568.81-73.49Q568.81-68.82 566.97-61.88L566.97-61.88L566.97-61.88Q561.31-39.08 561.31-30.30L561.31-30.30L561.31-30.30Q561.31-21.10 566.12-15.86L566.12-15.86L566.12-15.86Q569.24-12.46 575.89-11.75L575.89-11.75L575.89-11.75Q576.74-11.75 577.59-11.75L577.59-11.75L577.59-11.75Q600.67-11.75 607.90-33.98L607.90-33.98L607.90-33.98Q612.14-47.01 612.85-65.42L612.85-65.42L612.85-65.42Q613.28-73.92 613.56-82.27L613.56-82.27L613.56-82.27Q615.12-86.52 617.81-86.52L617.81-86.52L617.81-86.52Q620.50-86.52 623.75-84.11L623.75-84.11L623.75-84.11Q624.18-75.90 624.18-67.97L624.18-67.97L622.76-13.88L622.76-13.88Q622.76-8.07 623.05-2.27Z" fill="#f00" stroke="#0f0" stroke-width="1.8"></path></g></g><g><g transform="translate(-64.06997013092041, 125.34000587463379)"><path d="M17.42-23.65L17.42-23.65L17.98-13.31L17.98-13.31Q17.98-12.46 17.91-10.20L17.91-10.20L17.91-10.20Q17.84-7.93 16.21-6.16L16.21-6.16L16.21-6.16Q14.58-4.39 12.25-4.39L12.25-4.39L12.25-4.39Q9.91-4.39 8.64-4.53L8.64-4.53L8.64-4.53Q3.96-4.53 3.96-8.64L3.96-8.64L3.96-8.64Q3.96-12.04 7.08-36.04L7.08-36.04L7.08-36.04Q10.20-60.04 11.04-66.98L11.04-66.98L11.04-66.98Q11.89-73.92 12.53-78.66L12.53-78.66L12.53-78.66Q13.17-83.40 13.45-85.67L13.45-85.67L13.45-85.67Q13.74-87.93 14.30-90.20L14.30-90.20L14.30-90.20Q14.87-92.47 16.00-93.88L16.00-93.88L16.00-93.88Q18.13-96.57 24.21-96.57L24.21-96.57L24.21-96.57Q34.41-91.47 45.17-67.69L45.17-67.69L45.17-67.69Q52.82-50.69 55.37-46.16L55.37-46.16L55.37-46.16Q57.92-41.63 60.32-39.93L60.32-39.93L88.64-89.21L88.64-89.21Q91.62-91.33 93.17-91.33L93.17-91.33L93.17-91.33Q97.71-91.33 100.11-87.23L100.11-87.23L100.11-87.23Q102.52-83.12 104.15-77.24L104.15-77.24L104.15-77.24Q105.78-71.37 106.98-64.29L106.98-64.29L106.98-64.29Q108.18-57.21 109.10-49.49L109.10-49.49L109.10-49.49Q110.02-41.77 110.87-34.41L110.87-34.41L110.87-34.41Q112.86-16.71 113.92-12.18L113.92-12.18L113.92-12.18Q114.98-7.65 114.98-5.73L114.98-5.73L114.98-5.73Q114.98-3.82 113.71-2.05L113.71-2.05L113.71-2.05Q112.43-0.28 110.17-0.28L110.17-0.28L110.17-0.28Q107.90-0.28 105.63-2.05L105.63-2.05L105.63-2.05Q103.37-3.82 102.87-6.44L102.87-6.44L102.87-6.44Q102.38-9.06 101.88-13.31L101.88-13.31L101.88-13.31Q101.39-17.56 100.68-22.87L100.68-22.87L100.68-22.87Q99.97-28.18 99.26-34.06L99.26-34.06L99.26-34.06Q98.55-39.93 97.85-45.31L97.85-45.31L97.85-45.31Q97.14-50.69 96.57-54.87L96.57-54.87L96.57-54.87Q96.01-59.05 95.72-61.17L95.72-61.17L95.72-61.17Q95.72-64.00 95.58-66.41L95.58-66.41L95.58-66.41Q95.44-68.82 94.45-69.38L94.45-69.38L94.45-69.38Q93.46-69.95 91.40-68.04L91.40-68.04L91.40-68.04Q89.35-66.13 85.67-60.32L85.67-60.32L85.67-60.32Q77.74-48.00 62.73-18.83L62.73-18.83L62.73-18.83Q60.75-15.29 57.49-17.28L57.49-17.28L57.49-17.28Q53.67-19.40 50.98-28.18L50.98-28.18L24.92-83.54L24.92-83.54Q21.52-76.75 18.69-38.52L18.69-38.52L18.69-38.52Q18.27-33.84 18.13-30.59L18.13-30.59L18.13-30.59Q17.42-27.05 17.42-23.65ZM127.30-26.90L127.30-26.90L127.30-26.90Q127.30-43.61 141.74-53.81L141.74-53.81L141.74-53.81Q153.21-61.88 169.36-63.58L169.36-63.58L169.36-63.58Q170.21-63.58 173.32-63.58L173.32-63.58L173.32-63.58Q176.44-63.58 181.67-61.74L181.67-61.74L181.67-61.74Q193.29-57.77 197.53-47.72L197.53-47.72L197.53-47.72Q199.23-43.75 199.23-40.99L199.23-40.99L199.23-40.99Q199.23-38.23 199.09-37.10L199.09-37.10L199.09-37.10Q199.09-19.40 185.64-9.20L185.64-9.20L185.64-9.20Q173.18 0.14 154.49 0.14L154.49 0.14L154.49 0.14Q141.04 0.14 134.17-6.09L134.17-6.09L134.17-6.09Q127.30-12.32 127.30-26.90ZM137.07-23.51L137.07-23.51L137.07-23.51Q137.07-14.73 141.74-11.61L141.74-11.61L141.74-11.61Q145.28-9.35 153.64-9.35L153.64-9.35L153.64-9.35Q161.99-9.35 168.36-10.62L168.36-10.62L168.36-10.62Q174.74-11.89 179.69-15.01L179.69-15.01L179.69-15.01Q190.31-21.81 190.31-36.11L190.31-36.11L190.31-36.11Q190.31-44.60 185.78-49.99L185.78-49.99L185.78-49.99Q180.83-55.79 172.75-55.79L172.75-55.79L172.75-55.79Q167.23-54.80 161.64-53.67L161.64-53.67L161.64-53.67Q156.04-52.53 151.09-49.28L151.09-49.28L151.09-49.28Q140.33-42.34 137.07-23.51ZM206.60-54.80L206.60-54.80L206.60-54.80Q206.31-55.51 206.31-56.43L206.31-56.43L206.31-56.43Q206.31-57.35 207.02-58.91L207.02-58.91L207.02-58.91Q207.73-60.46 209.07-61.60L209.07-61.60L209.07-61.60Q210.42-62.73 212.05-62.66L212.05-62.66L212.05-62.66Q213.68-62.59 214.67-60.61L214.67-60.61L238.46-16.43L238.46-16.43Q239.59-18.13 242.07-22.73L242.07-22.73L242.07-22.73Q244.55-27.33 247.73-33.13L247.73-33.13L247.73-33.13Q250.92-38.94 254.39-45.24L254.39-45.24L254.39-45.24Q257.86-51.54 260.83-56.78L260.83-56.78L260.83-56.78Q267.63-68.82 268.90-68.82L268.90-68.82L268.90-68.82Q271.88-68.82 273.22-66.62L273.22-66.62L273.22-66.62Q274.57-64.43 274.57-63.30L274.57-63.30L274.57-63.30Q274.57-62.16 274.57-61.74L274.57-61.74L274.57-61.74Q266.64-44.46 259.91-29.88L259.91-29.88L259.91-29.88Q253.18-15.29 250.99-10.97L250.99-10.97L250.99-10.97Q248.79-6.66 247.09-4.11L247.09-4.11L247.09-4.11Q244.12 0.28 241.29 0.28L241.29 0.28L241.29 0.28Q238.46 0.28 234.78-4.18L234.78-4.18L234.78-4.18Q231.09-8.64 226.42-16.14L226.42-16.14L226.42-16.14Q218.21-29.74 206.60-54.80ZM284.34-66.55L293.26-66.55L293.26-66.55Q295.10-40.07 296.37-5.24L296.37-5.24L296.37-5.24Q295.52-0.85 289.58-0.85L289.58-0.85L289.58-0.85Q288.02-0.85 286.39-1.49L286.39-1.49L286.39-1.49Q284.76-2.12 284.34-3.26L284.34-3.26L284.34-66.55ZM280.09-85.81L280.09-85.81L280.09-85.81Q280.09-90.77 285.89-90.77L285.89-90.77L285.89-90.77Q289.72-90.77 292.12-89.07L292.12-89.07L292.12-89.07Q292.55-87.51 292.55-86.02L292.55-86.02L292.55-86.02Q292.55-84.54 291.42-83.12L291.42-83.12L291.42-83.12Q290.28-81.70 288.02-81.70L288.02-81.70L288.02-81.70Q285.75-81.70 283.49-82.77L283.49-82.77L283.49-82.77Q281.22-83.83 280.09-85.81ZM331.35-9.91L331.35-9.91L331.35-9.91Q343.81-9.91 368.87-21.24L368.87-21.24L368.87-21.24Q370.43-21.24 371.42-20.18L371.42-20.18L371.42-20.18Q372.41-19.12 372.41-17.70L372.41-17.70L372.41-17.70Q366.75-8.07 350.75-2.69L350.75-2.69L350.75-2.69Q334.75 2.69 320.87-0.85L320.87-0.85L320.87-0.85Q305.15-4.96 301.75-18.55L301.75-18.55L301.75-18.55Q301.47-21.24 301.47-25.77L301.47-25.77L301.47-25.77Q301.47-30.30 303.81-37.74L303.81-37.74L303.81-37.74Q306.14-45.17 311.81-51.83L311.81-51.83L311.81-51.83Q317.47-58.48 325.12-62.30L325.12-62.30L325.12-62.30Q332.76-66.13 341.40-66.13L341.40-66.13L341.40-66.13Q349.61-66.13 359.81-60.46L359.81-60.46L359.81-60.46Q364.62-57.77 367.46-54.38L367.46-54.38L367.46-54.38Q370.29-50.98 370.29-47.44L370.29-47.44L370.29-47.44Q370.29-46.45 370.15-45.45L370.15-45.45L370.15-45.45Q369.86-36.82 361.79-34.55L361.79-34.55L361.79-34.55Q358.25-33.56 353.58-33.56L353.58-33.56L333.19-34.41L333.19-34.41Q322.99-34.41 317.61-30.02L317.61-30.02L317.61-30.02Q314.50-27.61 313.22-22.80L313.22-22.80L313.22-22.80Q316.76-9.91 331.35-9.91ZM356.62-53.67L356.62-53.67L356.62-53.67Q353.44-55.93 350.04-56.92L350.04-56.92L350.04-56.92Q346.64-57.92 344.38-57.92L344.38-57.92L344.38-57.92Q342.11-57.92 337.01-56.43L337.01-56.43L337.01-56.43Q331.91-54.94 327.95-53.10L327.95-53.10L327.95-53.10Q318.18-48.57 318.18-43.61L318.18-43.61L318.18-43.61Q329.51-42.62 335.17-42.62L335.17-42.62L335.17-42.62Q350.89-42.62 356.41-45.31L356.41-45.31L356.41-45.31Q359.81-46.73 359.81-48.85L359.81-48.85L359.81-48.85Q359.81-51.40 356.62-53.67ZM429.34-36.53L429.34-36.53L429.34-36.53Q444.91-36.53 444.91-28.60L444.91-28.60L444.91-28.60Q444.91-22.66 436.27-14.73L436.27-14.73L436.27-14.73Q423.39-2.97 401.58 4.11L401.58 4.11L401.58 4.11Q400.59 4.11 399.39 2.12L399.39 2.12L399.39 2.12Q398.18 0.14 397.55-0.92L397.55-0.92L397.55-0.92Q396.91-1.98 396.63-2.27L396.63-2.27L396.63-2.27Q412.91-7.65 423.39-15.29L423.39-15.29L423.39-15.29Q430.47-20.39 430.47-23.65L430.47-23.65L430.47-23.65Q430.47-26.90 422.11-26.90L422.11-26.90L422.11-26.90Q413.76-26.90 397.62-22.94L397.62-22.94L397.62-22.94Q390.25-23.22 384.87-28.18L384.87-28.18L384.87-28.18Q380.20-32.57 380.20-37.03L380.20-37.03L380.20-37.03Q380.20-41.49 382.75-45.24L382.75-45.24L382.75-45.24Q385.30-48.99 389.55-52.25L389.55-52.25L389.55-52.25Q393.79-55.51 399.46-58.20L399.46-58.20L399.46-58.20Q413.33-64.85 428.20-64.85L428.20-64.85L428.20-64.85Q432.59-64.85 436.70-64.00L436.70-64.00L436.70-64.00Q440.10-64.00 440.66-61.03L440.66-61.03L440.66-61.03Q441.23-58.06 441.23-51.26L441.23-51.26L441.23-51.26Q432.88-55.08 422.40-55.08L422.40-55.08L422.40-55.08Q409.37-55.08 400.87-49.84L400.87-49.84L400.87-49.84Q392.09-44.75 391.81-36.53L391.81-36.53L391.81-36.53Q391.81-32.57 397.62-32.57L397.62-32.57L407.95-33.70L407.95-33.70Q421.26-36.53 429.34-36.53ZM514.30 0.85L506.08 2.12L506.08 2.12Q503.11 2.12 502.69 0.42L502.69 0.42L503.25-27.61L492.92-27.61L475.92-27.75L465.73-27.75L465.73-27.75Q463.89-27.75 462.05-28.32L462.05-28.32L462.05-28.32Q460.21-28.89 460.21-31.29L460.21-31.29L460.21-31.29Q467.71-40.92 474.79-50.69L474.79-50.69L474.79-50.69Q497.30-81.42 505.66-81.42L505.66-81.42L505.66-81.42Q515.00-81.42 515.00-48.57L515.00-48.57L515.00-48.57Q515.00-44.32 514.86-39.51L514.86-39.51L546.16-39.93L546.16-39.93Q546.16-36.25 545.24-34.55L545.24-34.55L545.24-34.55Q544.32-32.85 543.61-32.71L543.61-32.71L517.41-30.59L517.41-30.59Q515.43-25.06 515.00-18.13L515.00-18.13L515.00-18.13Q514.30-6.80 514.30 0.85L514.30 0.85ZM503.25-37.67L503.25-68.25L503.25-68.25Q500.14-64.00 495.68-59.97L495.68-59.97L495.68-59.97Q491.22-55.93 486.97-51.90L486.97-51.90L486.97-51.90Q482.72-47.86 479.32-43.75L479.32-43.75L479.32-43.75Q475.92-39.65 475.07-35.26L475.07-35.26L475.07-35.26Q476.06-35.26 479.46-35.26L479.46-35.26L479.46-35.26Q482.86-35.26 489.23-36.04L489.23-36.04L489.23-36.04Q495.61-36.82 503.25-37.67L503.25-37.67ZM623.05-2.27L623.05-2.27L623.05-2.27Q623.05 0.28 618.66 0.28L618.66 0.28L618.66 0.28Q616.53 0.28 614.76-0.35L614.76-0.35L614.76-0.35Q612.99-0.99 612.57-1.42L612.57-1.42L613.98-19.54L613.98-19.54Q600.96-8.35 595.01-5.52L595.01-5.52L595.01-5.52Q585.66-0.85 575.89-0.85L575.89-0.85L575.89-0.85Q574.05-0.85 572.07-0.99L572.07-0.99L572.07-0.99Q551.40-3.26 551.40-27.47L551.40-27.47L551.40-27.47Q551.40-38.52 557.06-65.00L557.06-65.00L557.06-65.00Q558.90-73.21 559.47-80.00L559.47-80.00L559.47-80.00Q559.89-80.15 561.31-80.15L561.31-80.15L561.31-80.15Q561.31-80.15 563.01-80.15L563.01-80.15L563.01-80.15Q563.72-80.29 564.28-80.29L564.28-80.29L564.28-80.29Q568.81-80.29 568.81-73.49L568.81-73.49L568.81-73.49Q568.81-68.82 566.97-61.88L566.97-61.88L566.97-61.88Q561.31-39.08 561.31-30.30L561.31-30.30L561.31-30.30Q561.31-21.10 566.12-15.86L566.12-15.86L566.12-15.86Q569.24-12.46 575.89-11.75L575.89-11.75L575.89-11.75Q576.74-11.75 577.59-11.75L577.59-11.75L577.59-11.75Q600.67-11.75 607.90-33.98L607.90-33.98L607.90-33.98Q612.14-47.01 612.85-65.42L612.85-65.42L612.85-65.42Q613.28-73.92 613.56-82.27L613.56-82.27L613.56-82.27Q615.12-86.52 617.81-86.52L617.81-86.52L617.81-86.52Q620.50-86.52 623.75-84.11L623.75-84.11L623.75-84.11Q624.18-75.90 624.18-67.97L624.18-67.97L622.76-13.88L622.76-13.88Q622.76-8.07 623.05-2.27Z" fill="none" stroke="#fff" stroke-width="2.1"></path></g></g></g><style>text {
  font-size: 64px;
  font-family: Arial Black;
  dominant-baseline: central;
  text-anchor: middle;
}</style></svg>